# Blender v2.79 (sub 0) OBJ File: 'tree.blend'
# www.blender.org
mtllib tree.mtl
o Cylinder
v -0.008830 1.455102 -1.690297
v -0.000000 4.835696 -0.141199
v 1.455010 1.455102 -0.845148
v 0.122282 4.835696 -0.070599
v 1.455010 1.455102 0.845149
v 0.122282 4.835696 0.070599
v -0.008830 1.455102 1.690297
v -0.000000 4.835696 0.141199
v -1.472670 1.455102 0.845148
v -0.122282 4.835696 0.070599
v -1.472670 1.455102 -0.845148
v -0.122282 4.835696 -0.070599
v 0.010440 3.569757 -0.744360
v 0.634965 3.569757 -0.383791
v 0.634965 3.569757 0.337348
v 0.010440 3.569757 0.697917
v -0.614084 3.569757 0.337348
v -0.614084 3.569757 -0.383791
v 0.003480 4.413716 -0.342252
v 0.293176 4.413716 -0.174996
v 0.293176 4.413716 0.159516
v 0.003480 4.413716 0.326771
v -0.286216 4.413716 0.159515
v -0.286216 4.413716 -0.174996
v 0.464070 3.991736 -0.279393
v 0.464070 3.991736 0.248432
v 0.006960 3.991736 0.512344
v -0.450150 3.991736 0.248432
v -0.450150 3.991736 -0.279393
v 0.006960 3.991736 -0.543306
v 0.850606 3.019606 -0.503818
v 0.850606 3.019606 0.469458
v 0.007724 3.019606 0.956095
v -0.835157 3.019606 0.469458
v -0.835157 3.019606 -0.503818
v 0.007724 3.019606 -0.990456
v 1.101971 2.378315 -0.643729
v 1.101971 2.378315 0.623454
v 0.004558 2.378315 1.257045
v -1.092855 2.378315 0.623453
v -1.092855 2.378315 -0.643729
v 0.004558 2.378315 -1.277321
v 1.298163 1.877784 -0.752931
v 1.298163 1.877784 0.743648
v 0.002087 1.877784 1.491938
v -1.293989 1.877784 0.743648
v -1.293989 1.877784 -0.752931
v 0.002087 1.877784 -1.501221
v 0.293176 4.413716 -0.174996
v 0.293176 4.413716 0.159516
v 0.122282 4.835696 0.070599
v 0.122282 4.835696 -0.070599
v 0.293176 4.413716 -0.174996
v 0.293176 4.413716 0.159516
v -0.008830 1.462746 -0.471508
v 0.399509 1.462746 -0.235754
v 0.399509 1.462746 0.235754
v -0.008830 1.462746 0.471508
v -0.417168 1.462746 0.235754
v -0.417168 1.462746 -0.235754
v -0.008830 0.677197 -0.389617
v 0.328589 0.677197 -0.194808
v 0.328589 0.677197 0.194809
v -0.008830 0.677197 0.389617
v -0.346248 0.677197 0.194808
v -0.346248 0.677197 -0.194808
v -0.008830 0.288300 -0.389617
v 0.328589 0.288300 -0.194808
v 0.328589 0.288300 0.194809
v -0.008830 0.288300 0.389617
v -0.346248 0.288300 0.194808
v -0.346248 0.288300 -0.194808
vt 0.744415 0.921788
vt 0.744500 0.983969
vt 0.726512 0.987959
vt 0.701799 0.931239
vt 0.000000 0.000000
vt 0.000000 0.000000
vt 0.000000 0.000000
vt 0.000000 0.000000
vt 0.854422 0.548710
vt 0.867917 0.488427
vt 0.886320 0.488427
vt 0.898021 0.548710
vt 0.408523 0.434965
vt 0.409367 0.494415
vt 0.399121 0.494310
vt 0.384251 0.434717
vt 0.375089 0.619429
vt 0.391027 0.628875
vt 0.391027 0.647766
vt 0.375089 0.657212
vt 0.359151 0.647766
vt 0.359151 0.628875
vt 0.382513 0.502448
vt 0.344905 0.453997
vt 0.376150 0.510691
vt 0.329830 0.473526
vt 0.814413 0.351268
vt 0.623620 0.464344
vt 0.623620 0.301277
vt 0.676842 0.269735
vt 0.222431 0.292749
vt 0.269688 0.357095
vt 0.237190 0.399195
vt 0.178571 0.349570
vt 0.336911 0.236653
vt 0.354510 0.315530
vt 0.407530 0.237377
vt 0.406835 0.316067
vt 0.811700 0.748262
vt 0.827431 0.669278
vt 0.921422 0.669278
vt 0.938554 0.748262
vt 0.620056 0.744550
vt 0.652374 0.817801
vt 0.611275 0.850967
vt 0.564587 0.789313
vt 0.744049 0.717049
vt 0.744245 0.797425
vt 0.307296 0.405546
vt 0.283510 0.436360
vt 0.369381 0.375123
vt 0.407679 0.375516
vt 0.840926 0.608994
vt 0.909722 0.608994
vt 0.677087 0.874520
vt 0.682735 0.946624
vt 0.647005 0.898796
vt 0.744330 0.859606
vt 0.743821 0.623359
vt 0.582385 0.659164
vt 0.510165 0.717444
vt 0.793363 0.840332
vt 0.958524 0.840332
vt 0.408340 0.145650
vt 0.316395 0.144708
vt 0.167345 0.217744
vt 0.110240 0.291724
vt 0.124350 0.159203
vt 0.056908 0.246574
vt 0.300383 0.072945
vt 0.408973 0.074058
vt 0.779051 0.912192
vt 0.974111 0.912192
vt 0.552982 0.592520
vt 0.467689 0.661350
vt 0.743643 0.550233
vt 0.744500 0.488427
vt 0.529161 0.536187
vt 0.432827 0.613927
vt 0.767961 0.972711
vt 0.988270 0.972711
vt 0.409367 0.013299
vt 0.286721 0.012041
vt 0.087903 0.109465
vt 0.011730 0.208146
vt 0.000000 0.000000
vt 0.000000 0.000000
vt 0.000000 0.000000
vt 0.359151 0.595346
vt 0.373164 0.534901
vt 0.383399 0.534774
vt 0.383399 0.595047
vt 0.000000 0.000000
vt 0.000000 0.000000
vt 0.000000 0.000000
vt 0.158101 0.534774
vt 0.189361 0.548969
vt 0.198230 0.646886
vt 0.172399 0.635156
vt 0.432827 0.351268
vt 0.432827 0.125117
vt 0.570399 0.206650
vt 0.570399 0.269735
vt 0.814413 0.125117
vt 0.676842 0.206650
vt 0.623620 0.012041
vt 0.623620 0.175108
vt 0.330353 0.584683
vt 0.279572 0.584683
vt 0.279572 0.534774
vt 0.330353 0.534774
vt 0.103913 0.550050
vt 0.134641 0.534774
vt 0.123967 0.635684
vt 0.098576 0.648306
vt 0.011730 0.534774
vt 0.042458 0.550050
vt 0.047795 0.648306
vt 0.022404 0.635684
vt 0.335690 0.682815
vt 0.274235 0.682815
vt 0.250774 0.546637
vt 0.248977 0.644959
vt 0.274235 0.732962
vt 0.318213 0.706898
vt 0.362191 0.732962
vt 0.362191 0.785090
vt 0.318213 0.811154
vt 0.274235 0.785090
vt 0.098576 0.698263
vt 0.047795 0.698263
vt 0.250774 0.694855
vt 0.200027 0.696782
vt 0.174197 0.685052
vt 0.123967 0.685640
vt 0.022404 0.685640
vn 0.4615 0.3847 -0.7994
vn 0.0000 0.0000 1.0000
vn 0.4666 0.3593 0.8082
vn -0.4679 0.3525 0.8104
vn 0.0000 1.0000 0.0000
vn -0.9321 0.3621 0.0000
vn -0.4629 0.3782 -0.8017
vn -0.0036 -1.0000 0.0063
vn -0.4658 0.3632 -0.8069
vn -0.9279 0.3729 0.0000
vn -0.4628 0.3785 0.8016
vn 0.4636 0.3745 0.8030
vn 0.9310 0.3649 0.0000
vn 0.4666 0.3592 -0.8082
vn 0.9269 0.3754 0.0000
vn 0.4682 0.3507 -0.8110
vn 0.9375 0.3479 0.0000
vn 0.4653 0.3662 0.8059
vn -0.4611 0.3867 0.7987
vn -0.9211 0.3894 0.0000
vn -0.4642 0.3716 -0.8040
vn -0.4980 -0.0899 -0.8625
vn -0.0036 -1.0000 -0.0063
vn 0.0036 -1.0000 0.0063
vn 0.0036 -1.0000 -0.0063
vn -0.0072 -1.0000 0.0000
vn 0.0072 -1.0000 0.0000
vn -1.0000 0.0000 0.0000
vn -0.4980 -0.0899 0.8625
vn 0.9959 -0.0899 0.0000
vn -0.9959 -0.0899 0.0000
vn 0.4980 -0.0899 0.8625
vn 0.4980 -0.0899 -0.8625
vn 0.0000 -1.0000 0.0000
vn 0.5000 0.0000 0.8660
vn 0.5000 0.0000 -0.8660
vn -0.5000 0.0000 -0.8660
vn -0.5000 0.0000 0.8660
vn 1.0000 0.0000 0.0000
usemtl Material.001
s off
f 19/1/1 2/2/1 4/3/1 20/4/1
f 20/5/2 4/6/2 52/7/2 53/8/2
f 21/9/3 6/10/3 8/11/3 22/12/3
f 22/13/4 8/14/4 10/15/4 23/16/4
f 4/17/5 2/18/5 12/19/5 10/20/5 8/21/5 6/22/5
f 23/16/6 10/15/6 12/23/6 24/24/6
f 24/24/7 12/23/7 2/25/7 19/26/7
f 1/27/8 3/28/8 56/29/8 55/30/8
f 35/31/9 18/32/9 13/33/9 36/34/9
f 34/35/10 17/36/10 18/32/10 35/31/10
f 33/37/11 16/38/11 17/36/11 34/35/11
f 32/39/12 15/40/12 16/41/12 33/42/12
f 31/43/13 14/44/13 15/45/13 32/46/13
f 36/47/14 13/48/14 14/44/14 31/43/14
f 29/49/7 24/24/7 19/26/7 30/50/7
f 28/51/6 23/16/6 24/24/6 29/49/6
f 27/52/4 22/13/4 23/16/4 28/51/4
f 26/53/3 21/9/3 22/12/3 27/54/3
f 25/55/15 20/4/15 21/56/15 26/57/15
f 30/58/1 19/1/1 20/4/1 25/55/1
f 13/48/1 30/58/1 25/55/1 14/44/1
f 14/44/15 25/55/15 26/57/15 15/45/15
f 15/40/3 26/53/3 27/54/3 16/41/3
f 16/38/4 27/52/4 28/51/4 17/36/4
f 17/36/6 28/51/6 29/49/6 18/32/6
f 18/32/7 29/49/7 30/50/7 13/33/7
f 42/59/14 36/47/14 31/43/14 37/60/14
f 37/60/13 31/43/13 32/46/13 38/61/13
f 38/62/12 32/39/12 33/42/12 39/63/12
f 39/64/11 33/37/11 34/35/11 40/65/11
f 40/65/10 34/35/10 35/31/10 41/66/10
f 41/66/9 35/31/9 36/34/9 42/67/9
f 47/68/9 41/66/9 42/67/9 48/69/9
f 46/70/10 40/65/10 41/66/10 47/68/10
f 45/71/11 39/64/11 40/65/11 46/70/11
f 44/72/12 38/62/12 39/63/12 45/73/12
f 43/74/13 37/60/13 38/61/13 44/75/13
f 48/76/14 42/59/14 37/60/14 43/74/14
f 1/77/16 48/76/16 43/74/16 3/78/16
f 3/78/17 43/74/17 44/75/17 5/79/17
f 5/80/18 44/72/18 45/73/18 7/81/18
f 7/82/19 45/71/19 46/70/19 9/83/19
f 9/83/20 46/70/20 47/68/20 11/84/20
f 11/84/21 47/68/21 48/69/21 1/85/21
f 21/86/2 20/5/2 49/87/2 50/88/2
f 53/89/15 52/90/15 51/91/15 54/92/15
f 21/86/2 20/5/2 53/8/2 54/93/2
f 4/6/2 6/94/2 51/95/2 52/7/2
f 6/94/2 21/86/2 54/93/2 51/95/2
f 60/96/22 55/97/22 61/98/22 66/99/22
f 5/100/23 7/101/23 58/102/23 57/103/23
f 11/104/24 1/27/24 55/30/24 60/105/24
f 7/101/25 9/106/25 59/107/25 58/102/25
f 3/28/26 5/100/26 57/103/26 56/29/26
f 9/106/27 11/104/27 60/105/27 59/107/27
f 65/108/28 66/109/28 72/110/28 71/111/28
f 58/112/29 59/113/29 65/114/29 64/115/29
f 56/116/30 57/117/30 63/118/30 62/119/30
f 59/120/31 60/121/31 66/109/31 65/108/31
f 57/117/32 58/112/32 64/115/32 63/118/32
f 55/97/33 56/122/33 62/123/33 61/98/33
f 67/124/34 68/125/34 69/126/34 70/127/34 71/128/34 72/129/34
f 63/118/35 64/115/35 70/130/35 69/131/35
f 61/98/36 62/123/36 68/132/36 67/133/36
f 66/99/37 61/98/37 67/133/37 72/134/37
f 64/115/38 65/114/38 71/135/38 70/130/38
f 62/119/39 63/118/39 69/131/39 68/136/39
